<svg width="34" height="35" viewBox="0 0 34 35" fill="none" xmlns="http://www.w3.org/2000/svg">
<path d="M23.4445 17.5L33.1104 7.92299C34.2965 6.74775 34.2965 4.8423 33.1104 3.66611L30.9622 1.53768C29.7761 0.362441 27.853 0.362441 26.6659 1.53768L17 11.1147L7.33415 1.53768C6.14801 0.362441 4.22489 0.362441 3.03778 1.53768L0.889602 3.66611C-0.296534 4.84135 -0.296534 6.7468 0.889602 7.92299L10.5555 17.5L0.889602 27.077C-0.296534 28.2522 -0.296534 30.1577 0.889602 31.3339L3.03778 33.4623C4.22392 34.6376 6.14801 34.6376 7.33415 33.4623L17 23.8853L26.6659 33.4623C27.852 34.6376 29.7761 34.6376 30.9622 33.4623L33.1104 31.3339C34.2965 30.1587 34.2965 28.2532 33.1104 27.077L23.4445 17.5Z" fill="black"/>
</svg>
