<?xml version="1.0" encoding="UTF-8" standalone="no"?>
<!DOCTYPE svg PUBLIC "-//W3C//DTD SVG 1.1//EN" "http://www.w3.org/Graphics/SVG/1.1/DTD/svg11.dtd">
<svg width="100%" height="100%" viewBox="0 0 800 600" version="1.1" xmlns="http://www.w3.org/2000/svg" xmlns:xlink="http://www.w3.org/1999/xlink" xml:space="preserve" xmlns:serif="http://www.serif.com/" style="fill-rule:evenodd;clip-rule:evenodd;stroke-linejoin:round;stroke-miterlimit:2;">
    <g transform="matrix(1,0,0,1,-4.44089e-16,-838.561)">
        <g id="logo-horizontal" transform="matrix(0.45775,0,0,1.34599,-2.28478,837.21)">
            <rect x="4.991" y="1.003" width="1747.68" height="445.769" style="fill:none;"/>
            <g transform="matrix(1.93593,0,0,0.742949,-1660.82,16.8452)">
                <g transform="matrix(1.12845,0,0,1.628,404.233,-812.566)">
                    <g transform="matrix(4.56574,0,0,2.77331,-801.01,502.157)">
                        <path d="M321.664,60.598L321.664,64.33L325.924,64.33L325.924,64.57L321.664,64.57L321.664,68.854L321.4,68.854L321.4,60.358L326.248,60.358L326.248,60.598L321.664,60.598Z" style="fill-rule:nonzero;"/>
                        <path d="M327.28,66.034C327.28,66.37 327.33,66.702 327.43,67.03C327.53,67.358 327.682,67.652 327.886,67.912C328.09,68.172 328.348,68.382 328.66,68.542C328.972,68.702 329.34,68.782 329.764,68.782C330.196,68.782 330.58,68.696 330.916,68.524C331.252,68.352 331.544,68.102 331.792,67.774L331.984,67.942C331.712,68.294 331.394,68.562 331.03,68.746C330.666,68.93 330.244,69.022 329.764,69.022C329.356,69.022 328.984,68.948 328.648,68.8C328.312,68.652 328.022,68.446 327.778,68.182C327.534,67.918 327.346,67.602 327.214,67.234C327.082,66.866 327.016,66.466 327.016,66.034C327.016,65.618 327.084,65.234 327.22,64.882C327.356,64.53 327.542,64.226 327.778,63.97C328.014,63.714 328.292,63.516 328.612,63.376C328.932,63.236 329.276,63.166 329.644,63.166C330.076,63.166 330.452,63.242 330.772,63.394C331.092,63.546 331.358,63.746 331.57,63.994C331.782,64.242 331.94,64.524 332.044,64.84C332.148,65.156 332.2,65.478 332.2,65.806L332.2,66.034L327.28,66.034ZM331.948,65.806C331.94,65.446 331.878,65.118 331.762,64.822C331.646,64.526 331.488,64.272 331.288,64.06C331.088,63.848 330.848,63.684 330.568,63.568C330.288,63.452 329.976,63.394 329.632,63.394C329.216,63.394 328.86,63.48 328.564,63.652C328.268,63.824 328.026,64.036 327.838,64.288C327.65,64.54 327.512,64.804 327.424,65.08C327.336,65.356 327.292,65.598 327.292,65.806L331.948,65.806Z" style="fill-rule:nonzero;"/>
                        <path d="M337.276,67.414C337.276,67.662 337.228,67.884 337.132,68.08C337.036,68.276 336.906,68.442 336.742,68.578C336.578,68.714 336.388,68.818 336.172,68.89C335.956,68.962 335.724,68.998 335.476,68.998C335.068,68.998 334.698,68.92 334.366,68.764C334.034,68.608 333.76,68.378 333.544,68.074L333.76,67.93C334.16,68.49 334.736,68.77 335.488,68.77C335.664,68.77 335.842,68.742 336.022,68.686C336.202,68.63 336.366,68.546 336.514,68.434C336.662,68.322 336.782,68.182 336.874,68.014C336.966,67.846 337.012,67.654 337.012,67.438C337.012,67.182 336.954,66.974 336.838,66.814C336.722,66.654 336.576,66.526 336.4,66.43C336.224,66.334 336.03,66.256 335.818,66.196C335.606,66.136 335.408,66.082 335.224,66.034C335.024,65.978 334.836,65.916 334.66,65.848C334.484,65.78 334.33,65.692 334.198,65.584C334.066,65.476 333.962,65.342 333.886,65.182C333.81,65.022 333.772,64.822 333.772,64.582C333.772,64.342 333.82,64.134 333.916,63.958C334.012,63.782 334.14,63.636 334.3,63.52C334.46,63.404 334.642,63.316 334.846,63.256C335.05,63.196 335.256,63.166 335.464,63.166C336.216,63.166 336.78,63.434 337.156,63.97L336.928,64.102C336.744,63.862 336.536,63.684 336.304,63.568C336.072,63.452 335.792,63.394 335.464,63.394C335.312,63.394 335.152,63.414 334.984,63.454C334.816,63.494 334.662,63.56 334.522,63.652C334.382,63.744 334.266,63.866 334.174,64.018C334.082,64.17 334.036,64.354 334.036,64.57C334.036,64.81 334.074,65.002 334.15,65.146C334.226,65.29 334.332,65.406 334.468,65.494C334.604,65.582 334.768,65.656 334.96,65.716C335.152,65.776 335.364,65.834 335.596,65.89C335.812,65.946 336.022,66.012 336.226,66.088C336.43,66.164 336.61,66.258 336.766,66.37C336.922,66.482 337.046,66.622 337.138,66.79C337.23,66.958 337.276,67.166 337.276,67.414Z" style="fill-rule:nonzero;"/>
                        <path d="M341.284,68.866C341.188,68.906 341.076,68.938 340.948,68.962C340.82,68.986 340.696,68.998 340.576,68.998C340.144,68.998 339.834,68.876 339.646,68.632C339.458,68.388 339.364,68.082 339.364,67.714L339.364,63.562L338.164,63.562L338.164,63.334L339.352,63.334L339.352,61.714L339.628,61.714L339.628,63.334L341.248,63.334L341.248,63.562L339.628,63.562L339.628,67.714C339.628,68.09 339.72,68.36 339.904,68.524C340.088,68.688 340.332,68.77 340.636,68.77C340.86,68.77 341.064,68.734 341.248,68.662L341.284,68.866Z" style="fill-rule:nonzero;"/>
                        <path d="M342.928,61.258C342.856,61.258 342.792,61.23 342.736,61.174C342.68,61.118 342.652,61.042 342.652,60.946C342.652,60.858 342.68,60.786 342.736,60.73C342.792,60.674 342.856,60.646 342.928,60.646C343,60.646 343.064,60.674 343.12,60.73C343.176,60.786 343.204,60.858 343.204,60.946C343.204,61.042 343.174,61.118 343.114,61.174C343.054,61.23 342.992,61.258 342.928,61.258ZM342.796,68.854L342.796,63.334L343.06,63.334L343.06,68.854L342.796,68.854Z" style="fill-rule:nonzero;"/>
                        <path d="M347.092,68.854L346.744,68.854L344.572,63.334L344.86,63.334L346.912,68.59L346.936,68.59L348.916,63.334L349.204,63.334L347.092,68.854Z" style="fill-rule:nonzero;"/>
                        <path d="M354.508,67.606C354.508,67.814 354.518,68.036 354.538,68.272C354.558,68.508 354.58,68.702 354.604,68.854L354.352,68.854C354.336,68.774 354.324,68.676 354.316,68.56C354.308,68.444 354.298,68.324 354.286,68.2C354.274,68.076 354.266,67.954 354.262,67.834C354.258,67.714 354.256,67.614 354.256,67.534L354.22,67.534C354.06,68.038 353.784,68.412 353.392,68.656C353,68.9 352.58,69.022 352.132,69.022C351.908,69.022 351.686,68.99 351.466,68.926C351.246,68.862 351.048,68.766 350.872,68.638C350.696,68.51 350.554,68.346 350.446,68.146C350.338,67.946 350.284,67.71 350.284,67.438C350.284,67.046 350.386,66.73 350.59,66.49C350.794,66.25 351.048,66.064 351.352,65.932C351.656,65.8 351.982,65.714 352.33,65.674C352.678,65.634 352.996,65.614 353.284,65.614L354.244,65.614L354.244,65.17C354.244,64.554 354.08,64.104 353.752,63.82C353.424,63.536 352.996,63.394 352.468,63.394C352.14,63.394 351.834,63.454 351.55,63.574C351.266,63.694 351.012,63.854 350.788,64.054L350.644,63.85C350.9,63.626 351.19,63.456 351.514,63.34C351.838,63.224 352.156,63.166 352.468,63.166C353.1,63.166 353.598,63.328 353.962,63.652C354.326,63.976 354.508,64.486 354.508,65.182L354.508,67.606ZM354.244,65.842L353.392,65.842C353.088,65.842 352.768,65.86 352.432,65.896C352.096,65.932 351.788,66.006 351.508,66.118C351.228,66.23 350.998,66.39 350.818,66.598C350.638,66.806 350.548,67.086 350.548,67.438C350.548,67.694 350.598,67.908 350.698,68.08C350.798,68.252 350.926,68.39 351.082,68.494C351.238,68.598 351.41,68.674 351.598,68.722C351.786,68.77 351.964,68.794 352.132,68.794C352.54,68.794 352.88,68.718 353.152,68.566C353.424,68.414 353.642,68.22 353.806,67.984C353.97,67.748 354.084,67.488 354.148,67.204C354.212,66.92 354.244,66.642 354.244,66.37L354.244,65.842Z" style="fill-rule:nonzero;"/>
                        <rect x="356.86" y="59.782" width="0.264" height="9.072" style="fill-rule:nonzero;"/>
                        <path d="M367.372,59.782L367.636,59.782L367.636,68.854L367.372,68.854L367.372,67.366L367.336,67.366C367.096,67.91 366.754,68.322 366.31,68.602C365.866,68.882 365.38,69.022 364.852,69.022C364.452,69.022 364.082,68.948 363.742,68.8C363.402,68.652 363.11,68.448 362.866,68.188C362.622,67.928 362.432,67.62 362.296,67.264C362.16,66.908 362.092,66.522 362.092,66.106C362.092,65.69 362.16,65.302 362.296,64.942C362.432,64.582 362.622,64.27 362.866,64.006C363.11,63.742 363.402,63.536 363.742,63.388C364.082,63.24 364.452,63.166 364.852,63.166C365.38,63.166 365.866,63.306 366.31,63.586C366.754,63.866 367.096,64.282 367.336,64.834L367.372,64.834L367.372,59.782ZM362.356,66.106C362.356,66.466 362.414,66.81 362.53,67.138C362.646,67.466 362.812,67.752 363.028,67.996C363.244,68.24 363.506,68.434 363.814,68.578C364.122,68.722 364.468,68.794 364.852,68.794C365.22,68.794 365.558,68.722 365.866,68.578C366.174,68.434 366.44,68.24 366.664,67.996C366.888,67.752 367.064,67.466 367.192,67.138C367.32,66.81 367.384,66.462 367.384,66.094C367.384,65.726 367.32,65.378 367.192,65.05C367.064,64.722 366.888,64.436 366.664,64.192C366.44,63.948 366.174,63.754 365.866,63.61C365.558,63.466 365.22,63.394 364.852,63.394C364.468,63.394 364.122,63.468 363.814,63.616C363.506,63.764 363.244,63.962 363.028,64.21C362.812,64.458 362.646,64.746 362.53,65.074C362.414,65.402 362.356,65.746 362.356,66.106Z" style="fill-rule:nonzero;"/>
                        <path d="M369.868,66.034C369.868,66.37 369.918,66.702 370.018,67.03C370.118,67.358 370.27,67.652 370.474,67.912C370.678,68.172 370.936,68.382 371.248,68.542C371.56,68.702 371.928,68.782 372.352,68.782C372.784,68.782 373.168,68.696 373.504,68.524C373.84,68.352 374.132,68.102 374.38,67.774L374.572,67.942C374.3,68.294 373.982,68.562 373.618,68.746C373.254,68.93 372.832,69.022 372.352,69.022C371.944,69.022 371.572,68.948 371.236,68.8C370.9,68.652 370.61,68.446 370.366,68.182C370.122,67.918 369.934,67.602 369.802,67.234C369.67,66.866 369.604,66.466 369.604,66.034C369.604,65.618 369.672,65.234 369.808,64.882C369.944,64.53 370.13,64.226 370.366,63.97C370.602,63.714 370.88,63.516 371.2,63.376C371.52,63.236 371.864,63.166 372.232,63.166C372.664,63.166 373.04,63.242 373.36,63.394C373.68,63.546 373.946,63.746 374.158,63.994C374.37,64.242 374.528,64.524 374.632,64.84C374.736,65.156 374.788,65.478 374.788,65.806L374.788,66.034L369.868,66.034ZM374.536,65.806C374.528,65.446 374.466,65.118 374.35,64.822C374.234,64.526 374.076,64.272 373.876,64.06C373.676,63.848 373.436,63.684 373.156,63.568C372.876,63.452 372.564,63.394 372.22,63.394C371.804,63.394 371.448,63.48 371.152,63.652C370.856,63.824 370.614,64.036 370.426,64.288C370.238,64.54 370.1,64.804 370.012,65.08C369.924,65.356 369.88,65.598 369.88,65.806L374.536,65.806Z" style="fill-rule:nonzero;"/>
                        <path d="M382.864,67.414C382.864,67.662 382.816,67.884 382.72,68.08C382.624,68.276 382.494,68.442 382.33,68.578C382.166,68.714 381.976,68.818 381.76,68.89C381.544,68.962 381.312,68.998 381.064,68.998C380.656,68.998 380.286,68.92 379.954,68.764C379.622,68.608 379.348,68.378 379.132,68.074L379.348,67.93C379.748,68.49 380.324,68.77 381.076,68.77C381.252,68.77 381.43,68.742 381.61,68.686C381.79,68.63 381.954,68.546 382.102,68.434C382.25,68.322 382.37,68.182 382.462,68.014C382.554,67.846 382.6,67.654 382.6,67.438C382.6,67.182 382.542,66.974 382.426,66.814C382.31,66.654 382.164,66.526 381.988,66.43C381.812,66.334 381.618,66.256 381.406,66.196C381.194,66.136 380.996,66.082 380.812,66.034C380.612,65.978 380.424,65.916 380.248,65.848C380.072,65.78 379.918,65.692 379.786,65.584C379.654,65.476 379.55,65.342 379.474,65.182C379.398,65.022 379.36,64.822 379.36,64.582C379.36,64.342 379.408,64.134 379.504,63.958C379.6,63.782 379.728,63.636 379.888,63.52C380.048,63.404 380.23,63.316 380.434,63.256C380.638,63.196 380.844,63.166 381.052,63.166C381.804,63.166 382.368,63.434 382.744,63.97L382.516,64.102C382.332,63.862 382.124,63.684 381.892,63.568C381.66,63.452 381.38,63.394 381.052,63.394C380.9,63.394 380.74,63.414 380.572,63.454C380.404,63.494 380.25,63.56 380.11,63.652C379.97,63.744 379.854,63.866 379.762,64.018C379.67,64.17 379.624,64.354 379.624,64.57C379.624,64.81 379.662,65.002 379.738,65.146C379.814,65.29 379.92,65.406 380.056,65.494C380.192,65.582 380.356,65.656 380.548,65.716C380.74,65.776 380.952,65.834 381.184,65.89C381.4,65.946 381.61,66.012 381.814,66.088C382.018,66.164 382.198,66.258 382.354,66.37C382.51,66.482 382.634,66.622 382.726,66.79C382.818,66.958 382.864,67.166 382.864,67.414Z" style="fill-rule:nonzero;"/>
                        <path d="M384.52,66.034C384.52,66.37 384.57,66.702 384.67,67.03C384.77,67.358 384.922,67.652 385.126,67.912C385.33,68.172 385.588,68.382 385.9,68.542C386.212,68.702 386.58,68.782 387.004,68.782C387.436,68.782 387.82,68.696 388.156,68.524C388.492,68.352 388.784,68.102 389.032,67.774L389.224,67.942C388.952,68.294 388.634,68.562 388.27,68.746C387.906,68.93 387.484,69.022 387.004,69.022C386.596,69.022 386.224,68.948 385.888,68.8C385.552,68.652 385.262,68.446 385.018,68.182C384.774,67.918 384.586,67.602 384.454,67.234C384.322,66.866 384.256,66.466 384.256,66.034C384.256,65.618 384.324,65.234 384.46,64.882C384.596,64.53 384.782,64.226 385.018,63.97C385.254,63.714 385.532,63.516 385.852,63.376C386.172,63.236 386.516,63.166 386.884,63.166C387.316,63.166 387.692,63.242 388.012,63.394C388.332,63.546 388.598,63.746 388.81,63.994C389.022,64.242 389.18,64.524 389.284,64.84C389.388,65.156 389.44,65.478 389.44,65.806L389.44,66.034L384.52,66.034ZM389.188,65.806C389.18,65.446 389.118,65.118 389.002,64.822C388.886,64.526 388.728,64.272 388.528,64.06C388.328,63.848 388.088,63.684 387.808,63.568C387.528,63.452 387.216,63.394 386.872,63.394C386.456,63.394 386.1,63.48 385.804,63.652C385.508,63.824 385.266,64.036 385.078,64.288C384.89,64.54 384.752,64.804 384.664,65.08C384.576,65.356 384.532,65.598 384.532,65.806L389.188,65.806Z" style="fill-rule:nonzero;"/>
                        <path d="M391.72,64.786C391.88,64.21 392.136,63.796 392.488,63.544C392.84,63.292 393.22,63.166 393.628,63.166L393.736,63.166C393.768,63.166 393.804,63.17 393.844,63.178L393.844,63.406C393.812,63.398 393.782,63.394 393.754,63.394L393.688,63.394C393.336,63.394 393.036,63.472 392.788,63.628C392.54,63.784 392.336,63.988 392.176,64.24C392.016,64.492 391.898,64.772 391.822,65.08C391.746,65.388 391.708,65.694 391.708,65.998L391.708,68.854L391.444,68.854L391.444,64.726C391.444,64.638 391.442,64.53 391.438,64.402C391.434,64.274 391.43,64.144 391.426,64.012C391.422,63.88 391.416,63.754 391.408,63.634C391.4,63.514 391.392,63.414 391.384,63.334L391.648,63.334C391.656,63.414 391.662,63.514 391.666,63.634C391.67,63.754 391.674,63.884 391.678,64.024C391.682,64.164 391.686,64.3 391.69,64.432C391.694,64.564 391.696,64.682 391.696,64.786L391.72,64.786Z" style="fill-rule:nonzero;"/>
                        <path d="M395.344,61.258C395.272,61.258 395.208,61.23 395.152,61.174C395.096,61.118 395.068,61.042 395.068,60.946C395.068,60.858 395.096,60.786 395.152,60.73C395.208,60.674 395.272,60.646 395.344,60.646C395.416,60.646 395.48,60.674 395.536,60.73C395.592,60.786 395.62,60.858 395.62,60.946C395.62,61.042 395.59,61.118 395.53,61.174C395.47,61.23 395.408,61.258 395.344,61.258ZM395.212,68.854L395.212,63.334L395.476,63.334L395.476,68.854L395.212,68.854Z" style="fill-rule:nonzero;"/>
                        <path d="M397.708,66.034C397.708,66.37 397.758,66.702 397.858,67.03C397.958,67.358 398.11,67.652 398.314,67.912C398.518,68.172 398.776,68.382 399.088,68.542C399.4,68.702 399.768,68.782 400.192,68.782C400.624,68.782 401.008,68.696 401.344,68.524C401.68,68.352 401.972,68.102 402.22,67.774L402.412,67.942C402.14,68.294 401.822,68.562 401.458,68.746C401.094,68.93 400.672,69.022 400.192,69.022C399.784,69.022 399.412,68.948 399.076,68.8C398.74,68.652 398.45,68.446 398.206,68.182C397.962,67.918 397.774,67.602 397.642,67.234C397.51,66.866 397.444,66.466 397.444,66.034C397.444,65.618 397.512,65.234 397.648,64.882C397.784,64.53 397.97,64.226 398.206,63.97C398.442,63.714 398.72,63.516 399.04,63.376C399.36,63.236 399.704,63.166 400.072,63.166C400.504,63.166 400.88,63.242 401.2,63.394C401.52,63.546 401.786,63.746 401.998,63.994C402.21,64.242 402.368,64.524 402.472,64.84C402.576,65.156 402.628,65.478 402.628,65.806L402.628,66.034L397.708,66.034ZM402.376,65.806C402.368,65.446 402.306,65.118 402.19,64.822C402.074,64.526 401.916,64.272 401.716,64.06C401.516,63.848 401.276,63.684 400.996,63.568C400.716,63.452 400.404,63.394 400.06,63.394C399.644,63.394 399.288,63.48 398.992,63.652C398.696,63.824 398.454,64.036 398.266,64.288C398.078,64.54 397.94,64.804 397.852,65.08C397.764,65.356 397.72,65.598 397.72,65.806L402.376,65.806Z" style="fill-rule:nonzero;"/>
                        <path d="M407.704,67.414C407.704,67.662 407.656,67.884 407.56,68.08C407.464,68.276 407.334,68.442 407.17,68.578C407.006,68.714 406.816,68.818 406.6,68.89C406.384,68.962 406.152,68.998 405.904,68.998C405.496,68.998 405.126,68.92 404.794,68.764C404.462,68.608 404.188,68.378 403.972,68.074L404.188,67.93C404.588,68.49 405.164,68.77 405.916,68.77C406.092,68.77 406.27,68.742 406.45,68.686C406.63,68.63 406.794,68.546 406.942,68.434C407.09,68.322 407.21,68.182 407.302,68.014C407.394,67.846 407.44,67.654 407.44,67.438C407.44,67.182 407.382,66.974 407.266,66.814C407.15,66.654 407.004,66.526 406.828,66.43C406.652,66.334 406.458,66.256 406.246,66.196C406.034,66.136 405.836,66.082 405.652,66.034C405.452,65.978 405.264,65.916 405.088,65.848C404.912,65.78 404.758,65.692 404.626,65.584C404.494,65.476 404.39,65.342 404.314,65.182C404.238,65.022 404.2,64.822 404.2,64.582C404.2,64.342 404.248,64.134 404.344,63.958C404.44,63.782 404.568,63.636 404.728,63.52C404.888,63.404 405.07,63.316 405.274,63.256C405.478,63.196 405.684,63.166 405.892,63.166C406.644,63.166 407.208,63.434 407.584,63.97L407.356,64.102C407.172,63.862 406.964,63.684 406.732,63.568C406.5,63.452 406.22,63.394 405.892,63.394C405.74,63.394 405.58,63.414 405.412,63.454C405.244,63.494 405.09,63.56 404.95,63.652C404.81,63.744 404.694,63.866 404.602,64.018C404.51,64.17 404.464,64.354 404.464,64.57C404.464,64.81 404.502,65.002 404.578,65.146C404.654,65.29 404.76,65.406 404.896,65.494C405.032,65.582 405.196,65.656 405.388,65.716C405.58,65.776 405.792,65.834 406.024,65.89C406.24,65.946 406.45,66.012 406.654,66.088C406.858,66.164 407.038,66.258 407.194,66.37C407.35,66.482 407.474,66.622 407.566,66.79C407.658,66.958 407.704,67.166 407.704,67.414Z" style="fill-rule:nonzero;"/>
                        <path d="M326.152,71.782L326.416,71.782L326.416,80.854L326.152,80.854L326.152,79.366L326.116,79.366C325.876,79.91 325.534,80.322 325.09,80.602C324.646,80.882 324.16,81.022 323.632,81.022C323.232,81.022 322.862,80.948 322.522,80.8C322.182,80.652 321.89,80.448 321.646,80.188C321.402,79.928 321.212,79.62 321.076,79.264C320.94,78.908 320.872,78.522 320.872,78.106C320.872,77.69 320.94,77.302 321.076,76.942C321.212,76.582 321.402,76.27 321.646,76.006C321.89,75.742 322.182,75.536 322.522,75.388C322.862,75.24 323.232,75.166 323.632,75.166C324.16,75.166 324.646,75.306 325.09,75.586C325.534,75.866 325.876,76.282 326.116,76.834L326.152,76.834L326.152,71.782ZM321.136,78.106C321.136,78.466 321.194,78.81 321.31,79.138C321.426,79.466 321.592,79.752 321.808,79.996C322.024,80.24 322.286,80.434 322.594,80.578C322.902,80.722 323.248,80.794 323.632,80.794C324,80.794 324.338,80.722 324.646,80.578C324.954,80.434 325.22,80.24 325.444,79.996C325.668,79.752 325.844,79.466 325.972,79.138C326.1,78.81 326.164,78.462 326.164,78.094C326.164,77.726 326.1,77.378 325.972,77.05C325.844,76.722 325.668,76.436 325.444,76.192C325.22,75.948 324.954,75.754 324.646,75.61C324.338,75.466 324,75.394 323.632,75.394C323.248,75.394 322.902,75.468 322.594,75.616C322.286,75.764 322.024,75.962 321.808,76.21C321.592,76.458 321.426,76.746 321.31,77.074C321.194,77.402 321.136,77.746 321.136,78.106Z" style="fill-rule:nonzero;"/>
                        <path d="M328.648,78.034C328.648,78.37 328.698,78.702 328.798,79.03C328.898,79.358 329.05,79.652 329.254,79.912C329.458,80.172 329.716,80.382 330.028,80.542C330.34,80.702 330.708,80.782 331.132,80.782C331.564,80.782 331.948,80.696 332.284,80.524C332.62,80.352 332.912,80.102 333.16,79.774L333.352,79.942C333.08,80.294 332.762,80.562 332.398,80.746C332.034,80.93 331.612,81.022 331.132,81.022C330.724,81.022 330.352,80.948 330.016,80.8C329.68,80.652 329.39,80.446 329.146,80.182C328.902,79.918 328.714,79.602 328.582,79.234C328.45,78.866 328.384,78.466 328.384,78.034C328.384,77.618 328.452,77.234 328.588,76.882C328.724,76.53 328.91,76.226 329.146,75.97C329.382,75.714 329.66,75.516 329.98,75.376C330.3,75.236 330.644,75.166 331.012,75.166C331.444,75.166 331.82,75.242 332.14,75.394C332.46,75.546 332.726,75.746 332.938,75.994C333.15,76.242 333.308,76.524 333.412,76.84C333.516,77.156 333.568,77.478 333.568,77.806L333.568,78.034L328.648,78.034ZM333.316,77.806C333.308,77.446 333.246,77.118 333.13,76.822C333.014,76.526 332.856,76.272 332.656,76.06C332.456,75.848 332.216,75.684 331.936,75.568C331.656,75.452 331.344,75.394 331,75.394C330.584,75.394 330.228,75.48 329.932,75.652C329.636,75.824 329.394,76.036 329.206,76.288C329.018,76.54 328.88,76.804 328.792,77.08C328.704,77.356 328.66,77.598 328.66,77.806L333.316,77.806Z" style="fill-rule:nonzero;"/>
                        <path d="M343.924,78.586C343.924,79.042 343.838,79.416 343.666,79.708C343.494,80 343.274,80.23 343.006,80.398C342.738,80.566 342.442,80.684 342.118,80.752C341.794,80.82 341.484,80.854 341.188,80.854L338.584,80.854L338.584,72.358L340.9,72.358C341.22,72.358 341.538,72.39 341.854,72.454C342.17,72.518 342.452,72.626 342.7,72.778C342.948,72.93 343.148,73.134 343.3,73.39C343.452,73.646 343.528,73.97 343.528,74.362C343.528,74.666 343.48,74.93 343.384,75.154C343.288,75.378 343.158,75.57 342.994,75.73C342.83,75.89 342.644,76.02 342.436,76.12C342.228,76.22 342.016,76.294 341.8,76.342L341.8,76.366C342.016,76.39 342.248,76.448 342.496,76.54C342.744,76.632 342.974,76.766 343.186,76.942C343.398,77.118 343.574,77.342 343.714,77.614C343.854,77.886 343.924,78.21 343.924,78.586ZM343.264,74.398C343.264,74.054 343.196,73.766 343.06,73.534C342.924,73.302 342.744,73.118 342.52,72.982C342.296,72.846 342.038,72.748 341.746,72.688C341.454,72.628 341.148,72.598 340.828,72.598L338.848,72.598L338.848,76.258L340.888,76.258C341.176,76.258 341.462,76.222 341.746,76.15C342.03,76.078 342.284,75.968 342.508,75.82C342.732,75.672 342.914,75.48 343.054,75.244C343.194,75.008 343.264,74.726 343.264,74.398ZM343.66,78.622C343.66,78.238 343.582,77.91 343.426,77.638C343.27,77.366 343.072,77.146 342.832,76.978C342.592,76.81 342.328,76.688 342.04,76.612C341.752,76.536 341.472,76.498 341.2,76.498L338.848,76.498L338.848,80.614L341.068,80.614C341.436,80.614 341.78,80.576 342.1,80.5C342.42,80.424 342.694,80.306 342.922,80.146C343.15,79.986 343.33,79.78 343.462,79.528C343.594,79.276 343.66,78.974 343.66,78.622Z" style="fill-rule:nonzero;"/>
                        <path d="M349.672,79.606C349.672,79.814 349.682,80.036 349.702,80.272C349.722,80.508 349.744,80.702 349.768,80.854L349.516,80.854C349.5,80.774 349.488,80.676 349.48,80.56C349.472,80.444 349.462,80.324 349.45,80.2C349.438,80.076 349.43,79.954 349.426,79.834C349.422,79.714 349.42,79.614 349.42,79.534L349.384,79.534C349.224,80.038 348.948,80.412 348.556,80.656C348.164,80.9 347.744,81.022 347.296,81.022C347.072,81.022 346.85,80.99 346.63,80.926C346.41,80.862 346.212,80.766 346.036,80.638C345.86,80.51 345.718,80.346 345.61,80.146C345.502,79.946 345.448,79.71 345.448,79.438C345.448,79.046 345.55,78.73 345.754,78.49C345.958,78.25 346.212,78.064 346.516,77.932C346.82,77.8 347.146,77.714 347.494,77.674C347.842,77.634 348.16,77.614 348.448,77.614L349.408,77.614L349.408,77.17C349.408,76.554 349.244,76.104 348.916,75.82C348.588,75.536 348.16,75.394 347.632,75.394C347.304,75.394 346.998,75.454 346.714,75.574C346.43,75.694 346.176,75.854 345.952,76.054L345.808,75.85C346.064,75.626 346.354,75.456 346.678,75.34C347.002,75.224 347.32,75.166 347.632,75.166C348.264,75.166 348.762,75.328 349.126,75.652C349.49,75.976 349.672,76.486 349.672,77.182L349.672,79.606ZM349.408,77.842L348.556,77.842C348.252,77.842 347.932,77.86 347.596,77.896C347.26,77.932 346.952,78.006 346.672,78.118C346.392,78.23 346.162,78.39 345.982,78.598C345.802,78.806 345.712,79.086 345.712,79.438C345.712,79.694 345.762,79.908 345.862,80.08C345.962,80.252 346.09,80.39 346.246,80.494C346.402,80.598 346.574,80.674 346.762,80.722C346.95,80.77 347.128,80.794 347.296,80.794C347.704,80.794 348.044,80.718 348.316,80.566C348.588,80.414 348.806,80.22 348.97,79.984C349.134,79.748 349.248,79.488 349.312,79.204C349.376,78.92 349.408,78.642 349.408,78.37L349.408,77.842Z" style="fill-rule:nonzero;"/>
                        <path d="M352.336,76.786C352.496,76.21 352.752,75.796 353.104,75.544C353.456,75.292 353.836,75.166 354.244,75.166L354.352,75.166C354.384,75.166 354.42,75.17 354.46,75.178L354.46,75.406C354.428,75.398 354.398,75.394 354.37,75.394L354.304,75.394C353.952,75.394 353.652,75.472 353.404,75.628C353.156,75.784 352.952,75.988 352.792,76.24C352.632,76.492 352.514,76.772 352.438,77.08C352.362,77.388 352.324,77.694 352.324,77.998L352.324,80.854L352.06,80.854L352.06,76.726C352.06,76.638 352.058,76.53 352.054,76.402C352.05,76.274 352.046,76.144 352.042,76.012C352.038,75.88 352.032,75.754 352.024,75.634C352.016,75.514 352.008,75.414 352,75.334L352.264,75.334C352.272,75.414 352.278,75.514 352.282,75.634C352.286,75.754 352.29,75.884 352.294,76.024C352.298,76.164 352.302,76.3 352.306,76.432C352.31,76.564 352.312,76.682 352.312,76.786L352.336,76.786Z" style="fill-rule:nonzero;"/>
                        <path d="M359.548,76.078C359.34,75.862 359.096,75.694 358.816,75.574C358.536,75.454 358.244,75.394 357.94,75.394C357.548,75.394 357.196,75.468 356.884,75.616C356.572,75.764 356.306,75.962 356.086,76.21C355.866,76.458 355.696,76.746 355.576,77.074C355.456,77.402 355.396,77.746 355.396,78.106C355.396,78.466 355.456,78.81 355.576,79.138C355.696,79.466 355.866,79.752 356.086,79.996C356.306,80.24 356.572,80.434 356.884,80.578C357.196,80.722 357.548,80.794 357.94,80.794C358.244,80.794 358.542,80.742 358.834,80.638C359.126,80.534 359.38,80.378 359.596,80.17L359.776,80.338C359.536,80.578 359.254,80.752 358.93,80.86C358.606,80.968 358.276,81.022 357.94,81.022C357.532,81.022 357.158,80.95 356.818,80.806C356.478,80.662 356.182,80.462 355.93,80.206C355.678,79.95 355.482,79.642 355.342,79.282C355.202,78.922 355.132,78.53 355.132,78.106C355.132,77.682 355.202,77.29 355.342,76.93C355.482,76.57 355.678,76.26 355.93,76C356.182,75.74 356.478,75.536 356.818,75.388C357.158,75.24 357.532,75.166 357.94,75.166C358.292,75.166 358.626,75.23 358.942,75.358C359.258,75.486 359.528,75.666 359.752,75.898L359.548,76.078Z" style="fill-rule:nonzero;"/>
                        <path d="M361.156,78.034C361.156,78.37 361.206,78.702 361.306,79.03C361.406,79.358 361.558,79.652 361.762,79.912C361.966,80.172 362.224,80.382 362.536,80.542C362.848,80.702 363.216,80.782 363.64,80.782C364.072,80.782 364.456,80.696 364.792,80.524C365.128,80.352 365.42,80.102 365.668,79.774L365.86,79.942C365.588,80.294 365.27,80.562 364.906,80.746C364.542,80.93 364.12,81.022 363.64,81.022C363.232,81.022 362.86,80.948 362.524,80.8C362.188,80.652 361.898,80.446 361.654,80.182C361.41,79.918 361.222,79.602 361.09,79.234C360.958,78.866 360.892,78.466 360.892,78.034C360.892,77.618 360.96,77.234 361.096,76.882C361.232,76.53 361.418,76.226 361.654,75.97C361.89,75.714 362.168,75.516 362.488,75.376C362.808,75.236 363.152,75.166 363.52,75.166C363.952,75.166 364.328,75.242 364.648,75.394C364.968,75.546 365.234,75.746 365.446,75.994C365.658,76.242 365.816,76.524 365.92,76.84C366.024,77.156 366.076,77.478 366.076,77.806L366.076,78.034L361.156,78.034ZM365.824,77.806C365.816,77.446 365.754,77.118 365.638,76.822C365.522,76.526 365.364,76.272 365.164,76.06C364.964,75.848 364.724,75.684 364.444,75.568C364.164,75.452 363.852,75.394 363.508,75.394C363.092,75.394 362.736,75.48 362.44,75.652C362.144,75.824 361.902,76.036 361.714,76.288C361.526,76.54 361.388,76.804 361.3,77.08C361.212,77.356 361.168,77.598 361.168,77.806L365.824,77.806Z" style="fill-rule:nonzero;"/>
                        <rect x="368.044" y="71.782" width="0.264" height="9.072" style="fill-rule:nonzero;"/>
                        <path d="M376.048,78.082C376.048,78.514 375.978,78.91 375.838,79.27C375.698,79.63 375.5,79.94 375.244,80.2C374.988,80.46 374.682,80.662 374.326,80.806C373.97,80.95 373.58,81.022 373.156,81.022C372.732,81.022 372.344,80.95 371.992,80.806C371.64,80.662 371.336,80.46 371.08,80.2C370.824,79.94 370.626,79.63 370.486,79.27C370.346,78.91 370.276,78.514 370.276,78.082C370.276,77.65 370.346,77.256 370.486,76.9C370.626,76.544 370.824,76.238 371.08,75.982C371.336,75.726 371.64,75.526 371.992,75.382C372.344,75.238 372.732,75.166 373.156,75.166C373.58,75.166 373.97,75.238 374.326,75.382C374.682,75.526 374.988,75.726 375.244,75.982C375.5,76.238 375.698,76.544 375.838,76.9C375.978,77.256 376.048,77.65 376.048,78.082ZM375.784,78.082C375.784,77.714 375.724,77.366 375.604,77.038C375.484,76.71 375.31,76.424 375.082,76.18C374.854,75.936 374.578,75.744 374.254,75.604C373.93,75.464 373.564,75.394 373.156,75.394C372.748,75.394 372.384,75.464 372.064,75.604C371.744,75.744 371.47,75.936 371.242,76.18C371.014,76.424 370.84,76.71 370.72,77.038C370.6,77.366 370.54,77.714 370.54,78.082C370.54,78.458 370.6,78.81 370.72,79.138C370.84,79.466 371.014,79.752 371.242,79.996C371.47,80.24 371.744,80.434 372.064,80.578C372.384,80.722 372.748,80.794 373.156,80.794C373.564,80.794 373.93,80.722 374.254,80.578C374.578,80.434 374.854,80.24 375.082,79.996C375.31,79.752 375.484,79.466 375.604,79.138C375.724,78.81 375.784,78.458 375.784,78.082Z" style="fill-rule:nonzero;"/>
                        <path d="M378.328,76.786C378.408,76.53 378.524,76.302 378.676,76.102C378.828,75.902 379,75.732 379.192,75.592C379.384,75.452 379.592,75.346 379.816,75.274C380.04,75.202 380.272,75.166 380.512,75.166C380.896,75.166 381.216,75.234 381.472,75.37C381.728,75.506 381.932,75.686 382.084,75.91C382.236,76.134 382.344,76.386 382.408,76.666C382.472,76.946 382.504,77.23 382.504,77.518L382.504,80.854L382.24,80.854L382.24,77.542C382.24,77.318 382.216,77.078 382.168,76.822C382.12,76.566 382.03,76.334 381.898,76.126C381.766,75.918 381.588,75.744 381.364,75.604C381.14,75.464 380.856,75.394 380.512,75.394C380.208,75.394 379.922,75.456 379.654,75.58C379.386,75.704 379.154,75.882 378.958,76.114C378.762,76.346 378.606,76.628 378.49,76.96C378.374,77.292 378.316,77.67 378.316,78.094L378.316,80.854L378.052,80.854L378.052,76.726C378.052,76.638 378.05,76.53 378.046,76.402C378.042,76.274 378.038,76.144 378.034,76.012C378.03,75.88 378.024,75.754 378.016,75.634C378.008,75.514 378,75.414 377.992,75.334L378.256,75.334C378.264,75.414 378.27,75.514 378.274,75.634C378.278,75.754 378.282,75.884 378.286,76.024C378.29,76.164 378.294,76.3 378.298,76.432C378.302,76.564 378.304,76.682 378.304,76.786L378.328,76.786Z" style="fill-rule:nonzero;"/>
                        <path d="M388.672,79.606C388.672,79.814 388.682,80.036 388.702,80.272C388.722,80.508 388.744,80.702 388.768,80.854L388.516,80.854C388.5,80.774 388.488,80.676 388.48,80.56C388.472,80.444 388.462,80.324 388.45,80.2C388.438,80.076 388.43,79.954 388.426,79.834C388.422,79.714 388.42,79.614 388.42,79.534L388.384,79.534C388.224,80.038 387.948,80.412 387.556,80.656C387.164,80.9 386.744,81.022 386.296,81.022C386.072,81.022 385.85,80.99 385.63,80.926C385.41,80.862 385.212,80.766 385.036,80.638C384.86,80.51 384.718,80.346 384.61,80.146C384.502,79.946 384.448,79.71 384.448,79.438C384.448,79.046 384.55,78.73 384.754,78.49C384.958,78.25 385.212,78.064 385.516,77.932C385.82,77.8 386.146,77.714 386.494,77.674C386.842,77.634 387.16,77.614 387.448,77.614L388.408,77.614L388.408,77.17C388.408,76.554 388.244,76.104 387.916,75.82C387.588,75.536 387.16,75.394 386.632,75.394C386.304,75.394 385.998,75.454 385.714,75.574C385.43,75.694 385.176,75.854 384.952,76.054L384.808,75.85C385.064,75.626 385.354,75.456 385.678,75.34C386.002,75.224 386.32,75.166 386.632,75.166C387.264,75.166 387.762,75.328 388.126,75.652C388.49,75.976 388.672,76.486 388.672,77.182L388.672,79.606ZM388.408,77.842L387.556,77.842C387.252,77.842 386.932,77.86 386.596,77.896C386.26,77.932 385.952,78.006 385.672,78.118C385.392,78.23 385.162,78.39 384.982,78.598C384.802,78.806 384.712,79.086 384.712,79.438C384.712,79.694 384.762,79.908 384.862,80.08C384.962,80.252 385.09,80.39 385.246,80.494C385.402,80.598 385.574,80.674 385.762,80.722C385.95,80.77 386.128,80.794 386.296,80.794C386.704,80.794 387.044,80.718 387.316,80.566C387.588,80.414 387.806,80.22 387.97,79.984C388.134,79.748 388.248,79.488 388.312,79.204C388.376,78.92 388.408,78.642 388.408,78.37L388.408,77.842Z" style="fill-rule:nonzero;"/>
                        <path d="M393.556,80.854L393.556,80.542L396.52,77.062C396.968,76.542 397.324,76.07 397.588,75.646C397.852,75.222 397.984,74.794 397.984,74.362C397.984,74.066 397.936,73.8 397.84,73.564C397.744,73.328 397.61,73.126 397.438,72.958C397.266,72.79 397.062,72.662 396.826,72.574C396.59,72.486 396.336,72.442 396.064,72.442C395.6,72.442 395.192,72.564 394.84,72.808C394.488,73.052 394.24,73.414 394.096,73.894L393.844,73.81C393.996,73.298 394.272,72.904 394.672,72.628C395.072,72.352 395.536,72.214 396.064,72.214C396.384,72.214 396.678,72.266 396.946,72.37C397.214,72.474 397.444,72.62 397.636,72.808C397.828,72.996 397.978,73.216 398.086,73.468C398.194,73.72 398.248,73.99 398.248,74.278C398.248,74.542 398.214,74.79 398.146,75.022C398.078,75.254 397.974,75.488 397.834,75.724C397.694,75.96 397.522,76.208 397.318,76.468C397.114,76.728 396.88,77.014 396.616,77.326L393.832,80.602L398.32,80.602L398.32,80.854L393.556,80.854Z" style="fill-rule:nonzero;"/>
                        <path d="M402.88,80.998C402.336,80.998 401.892,80.86 401.548,80.584C401.204,80.308 400.936,79.958 400.744,79.534C400.552,79.11 400.42,78.638 400.348,78.118C400.276,77.598 400.24,77.094 400.24,76.606C400.24,76.118 400.276,75.614 400.348,75.094C400.42,74.574 400.552,74.102 400.744,73.678C400.936,73.254 401.204,72.904 401.548,72.628C401.892,72.352 402.336,72.214 402.88,72.214C403.424,72.214 403.868,72.352 404.212,72.628C404.556,72.904 404.824,73.254 405.016,73.678C405.208,74.102 405.34,74.574 405.412,75.094C405.484,75.614 405.52,76.118 405.52,76.606C405.52,77.094 405.484,77.598 405.412,78.118C405.34,78.638 405.208,79.11 405.016,79.534C404.824,79.958 404.556,80.308 404.212,80.584C403.868,80.86 403.424,80.998 402.88,80.998ZM402.88,72.454C402.52,72.454 402.21,72.528 401.95,72.676C401.69,72.824 401.472,73.016 401.296,73.252C401.12,73.488 400.98,73.756 400.876,74.056C400.772,74.356 400.692,74.66 400.636,74.968C400.58,75.276 400.544,75.574 400.528,75.862C400.512,76.15 400.504,76.398 400.504,76.606C400.504,76.822 400.512,77.072 400.528,77.356C400.544,77.64 400.58,77.936 400.636,78.244C400.692,78.552 400.772,78.856 400.876,79.156C400.98,79.456 401.12,79.724 401.296,79.96C401.472,80.196 401.69,80.388 401.95,80.536C402.21,80.684 402.52,80.758 402.88,80.758C403.24,80.758 403.55,80.684 403.81,80.536C404.07,80.388 404.288,80.196 404.464,79.96C404.64,79.724 404.78,79.456 404.884,79.156C404.988,78.856 405.068,78.552 405.124,78.244C405.18,77.936 405.216,77.64 405.232,77.356C405.248,77.072 405.256,76.822 405.256,76.606C405.256,76.398 405.248,76.15 405.232,75.862C405.216,75.574 405.18,75.276 405.124,74.968C405.068,74.66 404.988,74.356 404.884,74.056C404.78,73.756 404.64,73.488 404.464,73.252C404.288,73.016 404.07,72.824 403.81,72.676C403.55,72.528 403.24,72.454 402.88,72.454Z" style="fill-rule:nonzero;"/>
                        <path d="M406.996,80.854L406.996,80.542L409.96,77.062C410.408,76.542 410.764,76.07 411.028,75.646C411.292,75.222 411.424,74.794 411.424,74.362C411.424,74.066 411.376,73.8 411.28,73.564C411.184,73.328 411.05,73.126 410.878,72.958C410.706,72.79 410.502,72.662 410.266,72.574C410.03,72.486 409.776,72.442 409.504,72.442C409.04,72.442 408.632,72.564 408.28,72.808C407.928,73.052 407.68,73.414 407.536,73.894L407.284,73.81C407.436,73.298 407.712,72.904 408.112,72.628C408.512,72.352 408.976,72.214 409.504,72.214C409.824,72.214 410.118,72.266 410.386,72.37C410.654,72.474 410.884,72.62 411.076,72.808C411.268,72.996 411.418,73.216 411.526,73.468C411.634,73.72 411.688,73.99 411.688,74.278C411.688,74.542 411.654,74.79 411.586,75.022C411.518,75.254 411.414,75.488 411.274,75.724C411.134,75.96 410.962,76.208 410.758,76.468C410.554,76.728 410.32,77.014 410.056,77.326L407.272,80.602L411.76,80.602L411.76,80.854L406.996,80.854Z" style="fill-rule:nonzero;"/>
                        <path d="M417.712,78.646L417.712,80.854L417.448,80.854L417.448,78.646L413.476,78.646L413.476,78.322L417.304,72.358L417.712,72.358L417.712,78.406L419.128,78.406L419.128,78.646L417.712,78.646ZM417.448,72.646L417.412,72.646L413.716,78.406L417.448,78.406L417.448,72.646Z" style="fill-rule:nonzero;"/>
                    </g>
                    <g transform="matrix(4.56574,0,0,2.77331,-802.325,462.19)">
                        <path d="M322.348,67.798L326.14,67.798L326.14,68.854L321.16,68.854L321.16,60.358L322.348,60.358L322.348,67.798Z" style="fill-rule:nonzero;"/>
                        <path d="M330.772,65.17C330.772,64.746 330.644,64.432 330.388,64.228C330.132,64.024 329.792,63.922 329.368,63.922C329.048,63.922 328.746,63.984 328.462,64.108C328.178,64.232 327.94,64.39 327.748,64.582L327.148,63.862C327.428,63.598 327.77,63.39 328.174,63.238C328.578,63.086 329.012,63.01 329.476,63.01C329.884,63.01 330.238,63.068 330.538,63.184C330.838,63.3 331.084,63.458 331.276,63.658C331.468,63.858 331.612,64.094 331.708,64.366C331.804,64.638 331.852,64.93 331.852,65.242L331.852,67.726C331.852,67.918 331.858,68.12 331.87,68.332C331.882,68.544 331.904,68.718 331.936,68.854L330.916,68.854C330.852,68.582 330.82,68.31 330.82,68.038L330.784,68.038C330.576,68.342 330.314,68.578 329.998,68.746C329.682,68.914 329.308,68.998 328.876,68.998C328.652,68.998 328.418,68.968 328.174,68.908C327.93,68.848 327.708,68.75 327.508,68.614C327.308,68.478 327.142,68.298 327.01,68.074C326.878,67.85 326.812,67.574 326.812,67.246C326.812,66.814 326.928,66.472 327.16,66.22C327.392,65.968 327.696,65.776 328.072,65.644C328.448,65.512 328.872,65.426 329.344,65.386C329.816,65.346 330.292,65.326 330.772,65.326L330.772,65.17ZM330.496,66.142C330.216,66.142 329.926,66.154 329.626,66.178C329.326,66.202 329.054,66.25 328.81,66.322C328.566,66.394 328.364,66.502 328.204,66.646C328.044,66.79 327.964,66.982 327.964,67.222C327.964,67.39 327.998,67.53 328.066,67.642C328.134,67.754 328.224,67.846 328.336,67.918C328.448,67.99 328.572,68.04 328.708,68.068C328.844,68.096 328.984,68.11 329.128,68.11C329.656,68.11 330.062,67.952 330.346,67.636C330.63,67.32 330.772,66.922 330.772,66.442L330.772,66.142L330.496,66.142Z" style="fill-rule:nonzero;"/>
                        <path d="M339.808,64.606C339.68,64.398 339.5,64.228 339.268,64.096C339.036,63.964 338.776,63.898 338.488,63.898C338.36,63.898 338.232,63.912 338.104,63.94C337.976,63.968 337.862,64.012 337.762,64.072C337.662,64.132 337.582,64.208 337.522,64.3C337.462,64.392 337.432,64.506 337.432,64.642C337.432,64.882 337.54,65.06 337.756,65.176C337.972,65.292 338.296,65.398 338.728,65.494C339,65.558 339.252,65.634 339.484,65.722C339.716,65.81 339.918,65.92 340.09,66.052C340.262,66.184 340.396,66.342 340.492,66.526C340.588,66.71 340.636,66.926 340.636,67.174C340.636,67.51 340.572,67.794 340.444,68.026C340.316,68.258 340.146,68.448 339.934,68.596C339.722,68.744 339.48,68.85 339.208,68.914C338.936,68.978 338.656,69.01 338.368,69.01C337.936,69.01 337.514,68.926 337.102,68.758C336.69,68.59 336.348,68.334 336.076,67.99L336.88,67.306C337.032,67.53 337.242,67.718 337.51,67.87C337.778,68.022 338.072,68.098 338.392,68.098C338.536,68.098 338.674,68.084 338.806,68.056C338.938,68.028 339.058,67.982 339.166,67.918C339.274,67.854 339.36,67.77 339.424,67.666C339.488,67.562 339.52,67.43 339.52,67.27C339.52,67.006 339.394,66.81 339.142,66.682C338.89,66.554 338.52,66.434 338.032,66.322C337.84,66.274 337.646,66.216 337.45,66.148C337.254,66.08 337.076,65.986 336.916,65.866C336.756,65.746 336.626,65.596 336.526,65.416C336.426,65.236 336.376,65.014 336.376,64.75C336.376,64.446 336.438,64.184 336.562,63.964C336.686,63.744 336.848,63.564 337.048,63.424C337.248,63.284 337.476,63.18 337.732,63.112C337.988,63.044 338.252,63.01 338.524,63.01C338.932,63.01 339.326,63.09 339.706,63.25C340.086,63.41 340.38,63.642 340.588,63.946L339.808,64.606Z" style="fill-rule:nonzero;"/>
                        <path d="M346.228,65.506C346.22,65.282 346.182,65.072 346.114,64.876C346.046,64.68 345.946,64.51 345.814,64.366C345.682,64.222 345.518,64.108 345.322,64.024C345.126,63.94 344.896,63.898 344.632,63.898C344.392,63.898 344.166,63.94 343.954,64.024C343.742,64.108 343.558,64.222 343.402,64.366C343.246,64.51 343.118,64.68 343.018,64.876C342.918,65.072 342.86,65.282 342.844,65.506L346.228,65.506ZM347.368,65.962L347.368,66.154C347.368,66.218 347.364,66.282 347.356,66.346L342.844,66.346C342.852,66.586 342.906,66.812 343.006,67.024C343.106,67.236 343.24,67.42 343.408,67.576C343.576,67.732 343.77,67.854 343.99,67.942C344.21,68.03 344.444,68.074 344.692,68.074C345.076,68.074 345.408,67.99 345.688,67.822C345.968,67.654 346.188,67.45 346.348,67.21L347.14,67.846C346.836,68.246 346.478,68.54 346.066,68.728C345.654,68.916 345.196,69.01 344.692,69.01C344.26,69.01 343.86,68.938 343.492,68.794C343.124,68.65 342.808,68.448 342.544,68.188C342.28,67.928 342.072,67.614 341.92,67.246C341.768,66.878 341.692,66.47 341.692,66.022C341.692,65.582 341.766,65.176 341.914,64.804C342.062,64.432 342.268,64.114 342.532,63.85C342.796,63.586 343.108,63.38 343.468,63.232C343.828,63.084 344.216,63.01 344.632,63.01C345.048,63.01 345.426,63.078 345.766,63.214C346.106,63.35 346.394,63.546 346.63,63.802C346.866,64.058 347.048,64.368 347.176,64.732C347.304,65.096 347.368,65.506 347.368,65.962Z" style="fill-rule:nonzero;"/>
                        <path d="M348.94,64.39C348.94,64.238 348.936,64.042 348.928,63.802C348.92,63.562 348.908,63.35 348.892,63.166L349.96,63.166C349.976,63.31 349.988,63.476 349.996,63.664C350.004,63.852 350.008,64.006 350.008,64.126L350.044,64.126C350.204,63.79 350.438,63.52 350.746,63.316C351.054,63.112 351.4,63.01 351.784,63.01C351.96,63.01 352.108,63.026 352.228,63.058L352.18,64.102C352.02,64.062 351.848,64.042 351.664,64.042C351.392,64.042 351.156,64.092 350.956,64.192C350.756,64.292 350.59,64.426 350.458,64.594C350.326,64.762 350.228,64.956 350.164,65.176C350.1,65.396 350.068,65.626 350.068,65.866L350.068,68.854L348.94,68.854L348.94,64.39Z" style="fill-rule:nonzero;"/>
                        <path d="M354.424,68.854L353.296,68.854L353.296,63.166L354.424,63.166L354.424,68.854ZM354.616,61.114C354.616,61.322 354.542,61.494 354.394,61.63C354.246,61.766 354.068,61.834 353.86,61.834C353.652,61.834 353.476,61.764 353.332,61.624C353.188,61.484 353.116,61.314 353.116,61.114C353.116,60.906 353.188,60.732 353.332,60.592C353.476,60.452 353.652,60.382 353.86,60.382C354.068,60.382 354.246,60.452 354.394,60.592C354.542,60.732 354.616,60.906 354.616,61.114Z" style="fill-rule:nonzero;"/>
                        <path d="M360.556,65.506C360.548,65.282 360.51,65.072 360.442,64.876C360.374,64.68 360.274,64.51 360.142,64.366C360.01,64.222 359.846,64.108 359.65,64.024C359.454,63.94 359.224,63.898 358.96,63.898C358.72,63.898 358.494,63.94 358.282,64.024C358.07,64.108 357.886,64.222 357.73,64.366C357.574,64.51 357.446,64.68 357.346,64.876C357.246,65.072 357.188,65.282 357.172,65.506L360.556,65.506ZM361.696,65.962L361.696,66.154C361.696,66.218 361.692,66.282 361.684,66.346L357.172,66.346C357.18,66.586 357.234,66.812 357.334,67.024C357.434,67.236 357.568,67.42 357.736,67.576C357.904,67.732 358.098,67.854 358.318,67.942C358.538,68.03 358.772,68.074 359.02,68.074C359.404,68.074 359.736,67.99 360.016,67.822C360.296,67.654 360.516,67.45 360.676,67.21L361.468,67.846C361.164,68.246 360.806,68.54 360.394,68.728C359.982,68.916 359.524,69.01 359.02,69.01C358.588,69.01 358.188,68.938 357.82,68.794C357.452,68.65 357.136,68.448 356.872,68.188C356.608,67.928 356.4,67.614 356.248,67.246C356.096,66.878 356.02,66.47 356.02,66.022C356.02,65.582 356.094,65.176 356.242,64.804C356.39,64.432 356.596,64.114 356.86,63.85C357.124,63.586 357.436,63.38 357.796,63.232C358.156,63.084 358.544,63.01 358.96,63.01C359.376,63.01 359.754,63.078 360.094,63.214C360.434,63.35 360.722,63.546 360.958,63.802C361.194,64.058 361.376,64.368 361.504,64.732C361.632,65.096 361.696,65.506 361.696,65.962Z" style="fill-rule:nonzero;"/>
                        <path d="M366.052,64.09L364.54,64.09L364.54,67.054C364.54,67.398 364.604,67.644 364.732,67.792C364.86,67.94 365.064,68.014 365.344,68.014C365.448,68.014 365.56,68.002 365.68,67.978C365.8,67.954 365.908,67.918 366.004,67.87L366.04,68.794C365.904,68.842 365.754,68.88 365.59,68.908C365.426,68.936 365.256,68.95 365.08,68.95C364.544,68.95 364.134,68.802 363.85,68.506C363.566,68.21 363.424,67.766 363.424,67.174L363.424,64.09L362.332,64.09L362.332,63.166L363.424,63.166L363.424,61.534L364.54,61.534L364.54,63.166L366.052,63.166L366.052,64.09Z" style="fill-rule:nonzero;"/>
                        <path d="M371.224,68.854C371.208,68.71 371.196,68.548 371.188,68.368C371.18,68.188 371.176,68.038 371.176,67.918L371.152,67.918C371.008,68.222 370.766,68.48 370.426,68.692C370.086,68.904 369.708,69.01 369.292,69.01C368.924,69.01 368.606,68.95 368.338,68.83C368.07,68.71 367.85,68.544 367.678,68.332C367.506,68.12 367.378,67.874 367.294,67.594C367.21,67.314 367.168,67.014 367.168,66.694L367.168,63.166L368.296,63.166L368.296,66.31C368.296,66.542 368.314,66.764 368.35,66.976C368.386,67.188 368.452,67.374 368.548,67.534C368.644,67.694 368.776,67.822 368.944,67.918C369.112,68.014 369.328,68.062 369.592,68.062C370.048,68.062 370.416,67.892 370.696,67.552C370.976,67.212 371.116,66.758 371.116,66.19L371.116,63.166L372.244,63.166L372.244,67.63C372.244,67.782 372.248,67.978 372.256,68.218C372.264,68.458 372.276,68.67 372.292,68.854L371.224,68.854ZM370.036,62.086L369.112,62.086L370.312,60.358L371.668,60.358L370.036,62.086Z" style="fill-rule:nonzero;"/>
                        <rect x="374.224" y="59.782" width="1.128" height="9.072" style="fill-rule:nonzero;"/>
                        <path d="M378.46,68.854L377.332,68.854L377.332,63.166L378.46,63.166L378.46,68.854ZM378.652,61.114C378.652,61.322 378.578,61.494 378.43,61.63C378.282,61.766 378.104,61.834 377.896,61.834C377.688,61.834 377.512,61.764 377.368,61.624C377.224,61.484 377.152,61.314 377.152,61.114C377.152,60.906 377.224,60.732 377.368,60.592C377.512,60.452 377.688,60.382 377.896,60.382C378.104,60.382 378.282,60.452 378.43,60.592C378.578,60.732 378.652,60.906 378.652,61.114Z" style="fill-rule:nonzero;"/>
                        <path d="M383.968,65.17C383.968,64.746 383.84,64.432 383.584,64.228C383.328,64.024 382.988,63.922 382.564,63.922C382.244,63.922 381.942,63.984 381.658,64.108C381.374,64.232 381.136,64.39 380.944,64.582L380.344,63.862C380.624,63.598 380.966,63.39 381.37,63.238C381.774,63.086 382.208,63.01 382.672,63.01C383.08,63.01 383.434,63.068 383.734,63.184C384.034,63.3 384.28,63.458 384.472,63.658C384.664,63.858 384.808,64.094 384.904,64.366C385,64.638 385.048,64.93 385.048,65.242L385.048,67.726C385.048,67.918 385.054,68.12 385.066,68.332C385.078,68.544 385.1,68.718 385.132,68.854L384.112,68.854C384.048,68.582 384.016,68.31 384.016,68.038L383.98,68.038C383.772,68.342 383.51,68.578 383.194,68.746C382.878,68.914 382.504,68.998 382.072,68.998C381.848,68.998 381.614,68.968 381.37,68.908C381.126,68.848 380.904,68.75 380.704,68.614C380.504,68.478 380.338,68.298 380.206,68.074C380.074,67.85 380.008,67.574 380.008,67.246C380.008,66.814 380.124,66.472 380.356,66.22C380.588,65.968 380.892,65.776 381.268,65.644C381.644,65.512 382.068,65.426 382.54,65.386C383.012,65.346 383.488,65.326 383.968,65.326L383.968,65.17ZM383.692,66.142C383.412,66.142 383.122,66.154 382.822,66.178C382.522,66.202 382.25,66.25 382.006,66.322C381.762,66.394 381.56,66.502 381.4,66.646C381.24,66.79 381.16,66.982 381.16,67.222C381.16,67.39 381.194,67.53 381.262,67.642C381.33,67.754 381.42,67.846 381.532,67.918C381.644,67.99 381.768,68.04 381.904,68.068C382.04,68.096 382.18,68.11 382.324,68.11C382.852,68.11 383.258,67.952 383.542,67.636C383.826,67.32 383.968,66.922 383.968,66.442L383.968,66.142L383.692,66.142Z" style="fill-rule:nonzero;"/>
                    </g>
                </g>
                <g transform="matrix(1.12845,0,0,2.13945,-303.286,-1471.91)">
                    <g transform="matrix(1,0,0,1,0,216.973)">
                        <g transform="matrix(1.25438,0,0,0.586311,-16.3967,-146.147)">
                            <circle cx="935.969" cy="1225.99" r="9.928" style="fill:rgb(0,158,224);"/>
                        </g>
                        <g transform="matrix(1.11301,0,0,0.520232,109.168,-67.9826)">
                            <rect x="990.241" y="1278.67" width="22.005" height="22.005" style="fill:rgb(0,158,224);"/>
                        </g>
                    </g>
                    <g transform="matrix(1,0,0,1,0,216.973)">
                        <g transform="matrix(1.15563,1.14482e-16,-4.60799e-16,0.760941,425.993,301.626)">
                            <g transform="matrix(1.49276,0,0,0.614252,-317.8,43.0916)">
                                <rect x="655.038" y="483.2" width="13.899" height="60.451"/>
                            </g>
                            <g transform="matrix(1.49276,0,0,0.614252,-286.238,43.0916)">
                                <rect x="655.038" y="483.2" width="13.899" height="60.451"/>
                            </g>
                        </g>
                        <g transform="matrix(-6.44886e-16,0.703238,-1.23225,-2.46874e-16,1681.05,148.515)">
                            <path d="M648.848,404.01L668.937,444.189L628.758,444.189L648.848,404.01Z"/>
                        </g>
                        <g transform="matrix(1,1.14482e-16,-2.44929e-16,0.46741,466.992,364.829)">
                            <path d="M782.184,483.2L721.734,483.2L721.734,543.651L782.184,543.651L782.184,483.2ZM764.184,501.2L764.184,525.651C764.184,525.651 739.734,525.651 739.734,525.651C739.734,525.651 739.734,501.2 739.734,501.2L764.184,501.2Z"/>
                        </g>
                        <g transform="matrix(1,1.14482e-16,-2.44929e-16,0.46741,402.013,334.416)">
                            <path d="M751.959,483.2C768.641,483.2 782.184,496.744 782.184,513.426C782.184,530.107 768.641,543.651 751.959,543.651C735.277,543.651 721.734,530.107 721.734,513.426C721.734,496.744 735.277,483.2 751.959,483.2ZM751.959,501.2C758.706,501.2 764.184,506.678 764.184,513.426C764.184,520.173 758.706,525.651 751.959,525.651C745.212,525.651 739.734,520.173 739.734,513.426C739.734,506.678 745.212,501.2 751.959,501.2Z"/>
                        </g>
                    </g>
                    <g transform="matrix(-5.83439e-16,0.632698,-1.1666,-2.32483e-16,1658.53,407.035)">
                        <path d="M648.848,404.01L668.937,444.189L628.758,444.189L648.848,404.01Z"/>
                        <path d="M648.848,404.01L668.937,444.189L628.758,444.189L648.848,404.01Z" style="fill:rgb(0,158,224);"/>
                    </g>
                    <g transform="matrix(1.53492,1.62589e-16,-2.51847e-16,0.444693,190.295,560.329)">
                        <rect x="655.038" y="483.2" width="13.899" height="60.451"/>
                        <rect x="655.038" y="483.2" width="13.899" height="60.451" style="fill:rgb(0,158,224);"/>
                    </g>
                    <g transform="matrix(1.53492,1.62589e-16,-2.51847e-16,0.444693,227.137,560.329)">
                        <rect x="655.038" y="483.2" width="13.899" height="60.451"/>
                        <rect x="655.038" y="483.2" width="13.899" height="60.451" style="fill:rgb(0,158,224);"/>
                    </g>
                </g>
            </g>
        </g>
    </g>
</svg>
